{"asset":{"version":"2.0","generator":"Blockbench 4.12.6 glTF exporter"},"scenes":[{"nodes":[2],"name":"blockbench_export"}],"scene":0,"nodes":[{"name":"cuboid","mesh":0},{"rotation":[0,0,0.17364817766693033,0.984807753012208],"translation":[0.5625,0.125,0],"name":"cuboid","mesh":1},{"children":[0,1]}],"bufferViews":[{"buffer":0,"byteOffset":0,"byteLength":960,"target":34962,"byteStride":12},{"buffer":0,"byteOffset":960,"byteLength":960,"target":34962,"byteStride":12},{"buffer":0,"byteOffset":1920,"byteLength":640,"target":34962,"byteStride":8},{"buffer":0,"byteOffset":2560,"byteLength":192,"target":34963},{"buffer":0,"byteOffset":2752,"byteLength":288,"target":34962,"byteStride":12},{"buffer":0,"byteOffset":3040,"byteLength":288,"target":34962,"byteStride":12},{"buffer":0,"byteOffset":3328,"byteLength":192,"target":34962,"byteStride":8},{"buffer":0,"byteOffset":3520,"byteLength":72,"target":34963}],"buffers":[{"byteLength":3592,"uri":"data:application/octet-stream;base64,"}],"accessors":[{"bufferView":0,"componentType":5126,"count":80,"max":[0.5625,0.1875,0.125],"min":[-0.5625,0,-0.125],"type":"VEC3"},{"bufferView":1,"componentType":5126,"count":80,"max":[0.4472135901451111,1,0.7071067690849304],"min":[-0.4472135901451111,-1,-0.7071067690849304],"type":"VEC3"},{"bufferView":2,"componentType":5126,"count":80,"max":[0.8619593977928162,0.6875],"min":[0,0],"type":"VEC2"},{"bufferView":3,"componentType":5123,"count":96,"max":[79],"min":[0],"type":"SCALAR"},{"bufferView":4,"componentType":5126,"count":24,"max":[0.0625,0.109375,0.046875],"min":[-0.0625,0.015625,-0.046875],"type":"VEC3"},{"bufferView":5,"componentType":5126,"count":24,"max":[1,0.9922778606414795,0.9922778606414795],"min":[-1,-0.9922778606414795,-0.9922778606414795],"type":"VEC3"},{"bufferView":6,"componentType":5126,"count":24,"max":[0.96875,0.984375],"min":[0.75,0.8125],"type":"VEC2"},{"bufferView":7,"componentType":5123,"count":36,"max":[23],"min":[0],"type":"SCALAR"}],"materials":[{"pbrMetallicRoughness":{"metallicFactor":0,"roughnessFactor":1,"baseColorTexture":{"index":0}},"alphaMode":"MASK","alphaCutoff":0.05,"doubleSided":true}],"textures":[{"sampler":0,"source":0,"name":"banana"}],"samplers":[{"magFilter":9728,"minFilter":9728,"wrapS":33071,"wrapT":33071}],"images":[{"mimeType":"image/png","uri":"data:image/png;base64,"}],"meshes":[{"primitives":[{"mode":4,"attributes":{"POSITION":0,"NORMAL":1,"TEXCOORD_0":2},"indices":3,"material":0}]},{"primitives":[{"mode":4,"attributes":{"POSITION":4,"NORMAL":5,"TEXCOORD_0":6},"indices":7,"material":0}]}]}