{"asset":{"version":"2.0","generator":"Blockbench 4.12.6 glTF exporter"},"scenes":[{"nodes":[30],"name":"blockbench_export"}],"scene":0,"nodes":[{"scale":[0.027522935779816515,0.027522935779816515,0.027522935779816515],"name":"particle-spawn"},{"scale":[16,16,16]},{"name":"particle-spawn","children":[0,1]},{"translation":[0,-0.0625,-0.125],"name":"trunk","mesh":0},{"translation":[0.0031250000000000167,0.03125,0.03125],"name":"right-wing","mesh":1},{"translation":[0.115625,0.015625,-0.2375],"name":"right-wing","children":[4]},{"translation":[0.0031250000000000167,0.015625,0],"name":"left-wing","mesh":2},{"translation":[-0.12187500000000001,0.03125,-0.221875],"name":"left-wing","children":[6]},{"translation":[0,0.046875,0.03125],"name":"neck","mesh":3},{"translation":[0,0.031249999999999917,-0.015625],"name":"head","mesh":4},{"translation":[0,0.03125,0],"name":"beak","mesh":5},{"translation":[0,-0.03125,-0.0625],"name":"mouth","mesh":6},{"translation":[0,0.03125,-0.21875],"name":"mouth","children":[11]},{"translation":[0,0.06249999999999992,-0.0625],"name":"beak","children":[10,12]},{"translation":[0,0.09374999999999997,0],"name":"head","children":[9,13]},{"translation":[0,0.03125,-0.265625],"name":"neck","children":[8,14]},{"translation":[0.03125,0,0],"name":"left-thigh","mesh":7},{"translation":[0,-5.551115123125783e-17,0],"name":"left-leg","mesh":8},{"translation":[0.009375000000000008,-0.078125,0],"name":"left-foot","mesh":9},{"translation":[0.03125,-0.015625,0],"name":"left-leg","children":[17,18]},{"translation":[-0.078125,-0.140625,-0.018750000000000003],"name":"left-thigh","children":[16,19]},{"translation":[0,-0.015625,0],"name":"right-thigh","mesh":10},{"translation":[0,-5.551115123125783e-17,0],"name":"right-leg","mesh":11},{"translation":[-0.006249999999999978,-0.078125,0],"name":"right-foot","mesh":12},{"translation":[0,-0.03125,0],"name":"right-leg","children":[22,23]},{"translation":[0.046875,-0.125,-0.018750000000000003],"name":"right-thigh","children":[21,24]},{"translation":[0,0,0.084375],"name":"tail","mesh":13},{"translation":[0,-0.050000000000000044,0.025],"name":"tail","children":[26]},{"translation":[0,0.125,0],"name":"trunk","children":[3,5,7,15,20,25,27]},{"name":"Toucan","children":[2,28]},{"children":[29]}],"bufferViews":[{"buffer":0,"byteOffset":0,"byteLength":288,"target":34962,"byteStride":12},{"buffer":0,"byteOffset":288,"byteLength":288,"target":34962,"byteStride":12},{"buffer":0,"byteOffset":576,"byteLength":192,"target":34962,"byteStride":8},{"buffer":0,"byteOffset":768,"byteLength":72,"target":34963},{"buffer":0,"byteOffset":840,"byteLength":288,"target":34962,"byteStride":12},{"buffer":0,"byteOffset":1128,"byteLength":288,"target":34962,"byteStride":12},{"buffer":0,"byteOffset":1416,"byteLength":192,"target":34962,"byteStride":8},{"buffer":0,"byteOffset":1608,"byteLength":72,"target":34963},{"buffer":0,"byteOffset":1680,"byteLength":288,"target":34962,"byteStride":12},{"buffer":0,"byteOffset":1968,"byteLength":288,"target":34962,"byteStride":12},{"buffer":0,"byteOffset":2256,"byteLength":192,"target":34962,"byteStride":8},{"buffer":0,"byteOffset":2448,"byteLength":72,"target":34963},{"buffer":0,"byteOffset":2520,"byteLength":288,"target":34962,"byteStride":12},{"buffer":0,"byteOffset":2808,"byteLength":288,"target":34962,"byteStride":12},{"buffer":0,"byteOffset":3096,"byteLength":192,"target":34962,"byteStride":8},{"buffer":0,"byteOffset":3288,"byteLength":72,"target":34963},{"buffer":0,"byteOffset":3360,"byteLength":288,"target":34962,"byteStride":12},{"buffer":0,"byteOffset":3648,"byteLength":288,"target":34962,"byteStride":12},{"buffer":0,"byteOffset":3936,"byteLength":192,"target":34962,"byteStride":8},{"buffer":0,"byteOffset":4128,"byteLength":72,"target":34963},{"buffer":0,"byteOffset":4200,"byteLength":288,"target":34962,"byteStride":12},{"buffer":0,"byteOffset":4488,"byteLength":288,"target":34962,"byteStride":12},{"buffer":0,"byteOffset":4776,"byteLength":192,"target":34962,"byteStride":8},{"buffer":0,"byteOffset":4968,"byteLength":72,"target":34963},{"buffer":0,"byteOffset":5040,"byteLength":288,"target":34962,"byteStride":12},{"buffer":0,"byteOffset":5328,"byteLength":288,"target":34962,"byteStride":12},{"buffer":0,"byteOffset":5616,"byteLength":192,"target":34962,"byteStride":8},{"buffer":0,"byteOffset":5808,"byteLength":72,"target":34963},{"buffer":0,"byteOffset":5880,"byteLength":288,"target":34962,"byteStride":12},{"buffer":0,"byteOffset":6168,"byteLength":288,"target":34962,"byteStride":12},{"buffer":0,"byteOffset":6456,"byteLength":192,"target":34962,"byteStride":8},{"buffer":0,"byteOffset":6648,"byteLength":72,"target":34963},{"buffer":0,"byteOffset":6720,"byteLength":288,"target":34962,"byteStride":12},{"buffer":0,"byteOffset":7008,"byteLength":288,"target":34962,"byteStride":12},{"buffer":0,"byteOffset":7296,"byteLength":192,"target":34962,"byteStride":8},{"buffer":0,"byteOffset":7488,"byteLength":72,"target":34963},{"buffer":0,"byteOffset":7560,"byteLength":288,"target":34962,"byteStride":12},{"buffer":0,"byteOffset":7848,"byteLength":288,"target":34962,"byteStride":12},{"buffer":0,"byteOffset":8136,"byteLength":192,"target":34962,"byteStride":8},{"buffer":0,"byteOffset":8328,"byteLength":72,"target":34963},{"buffer":0,"byteOffset":8400,"byteLength":288,"target":34962,"byteStride":12},{"buffer":0,"byteOffset":8688,"byteLength":288,"target":34962,"byteStride":12},{"buffer":0,"byteOffset":8976,"byteLength":192,"target":34962,"byteStride":8},{"buffer":0,"byteOffset":9168,"byteLength":72,"target":34963},{"buffer":0,"byteOffset":9240,"byteLength":288,"target":34962,"byteStride":12},{"buffer":0,"byteOffset":9528,"byteLength":288,"target":34962,"byteStride":12},{"buffer":0,"byteOffset":9816,"byteLength":192,"target":34962,"byteStride":8},{"buffer":0,"byteOffset":10008,"byteLength":72,"target":34963},{"buffer":0,"byteOffset":10080,"byteLength":288,"target":34962,"byteStride":12},{"buffer":0,"byteOffset":10368,"byteLength":288,"target":34962,"byteStride":12},{"buffer":0,"byteOffset":10656,"byteLength":192,"target":34962,"byteStride":8},{"buffer":0,"byteOffset":10848,"byteLength":72,"target":34963},{"buffer":0,"byteOffset":10920,"byteLength":288,"target":34962,"byteStride":12},{"buffer":0,"byteOffset":11208,"byteLength":288,"target":34962,"byteStride":12},{"buffer":0,"byteOffset":11496,"byteLength":192,"target":34962,"byteStride":8},{"buffer":0,"byteOffset":11688,"byteLength":72,"target":34963},{"buffer":0,"byteOffset":11760,"byteLength":64},{"buffer":0,"byteOffset":11824,"byteLength":256},{"buffer":0,"byteOffset":12080,"byteLength":64},{"buffer":0,"byteOffset":12144,"byteLength":192},{"buffer":0,"byteOffset":12336,"byteLength":64},{"buffer":0,"byteOffset":12400,"byteLength":256},{"buffer":0,"byteOffset":12656,"byteLength":64},{"buffer":0,"byteOffset":12720,"byteLength":256},{"buffer":0,"byteOffset":12976,"byteLength":64},{"buffer":0,"byteOffset":13040,"byteLength":256},{"buffer":0,"byteOffset":13296,"byteLength":64},{"buffer":0,"byteOffset":13360,"byteLength":256},{"buffer":0,"byteOffset":13616,"byteLength":64},{"buffer":0,"byteOffset":13680,"byteLength":256},{"buffer":0,"byteOffset":13936,"byteLength":64},{"buffer":0,"byteOffset":14000,"byteLength":256},{"buffer":0,"byteOffset":14256,"byteLength":64},{"buffer":0,"byteOffset":14320,"byteLength":256},{"buffer":0,"byteOffset":14576,"byteLength":40},{"buffer":0,"byteOffset":14616,"byteLength":160},{"buffer":0,"byteOffset":14776,"byteLength":40},{"buffer":0,"byteOffset":14816,"byteLength":160},{"buffer":0,"byteOffset":14976,"byteLength":40},{"buffer":0,"byteOffset":15016,"byteLength":160},{"buffer":0,"byteOffset":15176,"byteLength":40},{"buffer":0,"byteOffset":15216,"byteLength":160},{"buffer":0,"byteOffset":15376,"byteLength":40},{"buffer":0,"byteOffset":15416,"byteLength":160},{"buffer":0,"byteOffset":15576,"byteLength":40},{"buffer":0,"byteOffset":15616,"byteLength":160},{"buffer":0,"byteOffset":15776,"byteLength":40},{"buffer":0,"byteOffset":15816,"byteLength":160},{"buffer":0,"byteOffset":15976,"byteLength":40},{"buffer":0,"byteOffset":16016,"byteLength":160}],"buffers":[{"byteLength":16176,"uri":"data:application/octet-stream;base64,"}],"accessors":[{"bufferView":0,"componentType":5126,"count":24,"max":[0.09375,0.125,0.15625],"min":[-0.09375,-0.0625,-0.15625],"type":"VEC3"},{"bufferView":1,"componentType":5126,"count":24,"max":[1,1,1],"min":[-1,-1,-1],"type":"VEC3"},{"bufferView":2,"componentType":5126,"count":24,"max":[0.359375,0.328125],"min":[0,0],"type":"VEC2"},{"bufferView":3,"componentType":5123,"count":36,"max":[23],"min":[0],"type":"SCALAR"},{"bufferView":4,"componentType":5126,"count":24,"max":[0.015625,0.015625,0.25],"min":[-0.015625,-0.109375,-0.0625],"type":"VEC3"},{"bufferView":5,"componentType":5126,"count":24,"max":[1,1,1],"min":[-1,-1,-1],"type":"VEC3"},{"bufferView":6,"componentType":5126,"count":24,"max":[0.4375,0.5],"min":[0,0],"type":"VEC2"},{"bufferView":7,"componentType":5123,"count":36,"max":[23],"min":[0],"type":"SCALAR"},{"bufferView":8,"componentType":5126,"count":24,"max":[0.015625,0.015625,0.265625],"min":[-0.015625,-0.109375,-0.046875],"type":"VEC3"},{"bufferView":9,"componentType":5126,"count":24,"max":[1,1,1],"min":[-1,-1,-1],"type":"VEC3"},{"bufferView":10,"componentType":5126,"count":24,"max":[0.40625,0.5],"min":[0.03125,0.046875],"type":"VEC2"},{"bufferView":11,"componentType":5123,"count":36,"max":[23],"min":[0],"type":"SCALAR"},{"bufferView":12,"componentType":5126,"count":24,"max":[0.078125,0.140625,0.078125],"min":[-0.078125,-0.078125,-0.078125],"type":"VEC3"},{"bufferView":13,"componentType":5126,"count":24,"max":[1,1,1],"min":[-1,-1,-1],"type":"VEC3"},{"bufferView":14,"componentType":5126,"count":24,"max":[0.359375,0.375],"min":[0,0],"type":"VEC2"},{"bufferView":15,"componentType":5123,"count":36,"max":[23],"min":[0],"type":"SCALAR"},{"bufferView":16,"componentType":5126,"count":24,"max":[0.09375,0.09375,0.0625],"min":[-0.09375,-0.03125,-0.125],"type":"VEC3"},{"bufferView":17,"componentType":5126,"count":24,"max":[1,1,1],"min":[-1,-1,-1],"type":"VEC3"},{"bufferView":18,"componentType":5126,"count":24,"max":[0.4375,0.4375],"min":[0,0.3125],"type":"VEC2"},{"bufferView":19,"componentType":5123,"count":36,"max":[23],"min":[0],"type":"SCALAR"},{"bufferView":20,"componentType":5126,"count":24,"max":[0.0625,0.046875,0.03125],"min":[-0.0625,-0.046875,-0.21875],"type":"VEC3"},{"bufferView":21,"componentType":5126,"count":24,"max":[1,1,1],"min":[-1,-1,-1],"type":"VEC3"},{"bufferView":22,"componentType":5126,"count":24,"max":[0.453125,0.4375],"min":[0.078125,0.15625],"type":"VEC2"},{"bufferView":23,"componentType":5123,"count":36,"max":[23],"min":[0],"type":"SCALAR"},{"bufferView":24,"componentType":5126,"count":24,"max":[0.0625,0.078125,0.0625],"min":[-0.0625,-0.015625,-0.0625],"type":"VEC3"},{"bufferView":25,"componentType":5126,"count":24,"max":[1,1,1],"min":[-1,-1,-1],"type":"VEC3"},{"bufferView":26,"componentType":5126,"count":24,"max":[0.71875,0.96875],"min":[0.546875,0.015625],"type":"VEC2"},{"bufferView":27,"componentType":5123,"count":36,"max":[23],"min":[0],"type":"SCALAR"},{"bufferView":28,"componentType":5126,"count":24,"max":[0.03125,0.046875,0.03125],"min":[-0.03125,-0.015625,-0.03125],"type":"VEC3"},{"bufferView":29,"componentType":5126,"count":24,"max":[1,1,1],"min":[-1,-1,-1],"type":"VEC3"},{"bufferView":30,"componentType":5126,"count":24,"max":[0.484375,0.453125],"min":[0.4375,0],"type":"VEC2"},{"bufferView":31,"componentType":5123,"count":36,"max":[23],"min":[0],"type":"SCALAR"},{"bufferView":32,"componentType":5126,"count":24,"max":[0.015625,0,0.015625],"min":[-0.015625,-0.0625,-0.015625],"type":"VEC3"},{"bufferView":33,"componentType":5126,"count":24,"max":[1,1,1],"min":[-1,-1,-1],"type":"VEC3"},{"bufferView":34,"componentType":5126,"count":24,"max":[0.484375,0.484375],"min":[0.078125,0.078125],"type":"VEC2"},{"bufferView":35,"componentType":5123,"count":36,"max":[23],"min":[0],"type":"SCALAR"},{"bufferView":36,"componentType":5126,"count":24,"max":[0.015625,0.015625,0.015625],"min":[-0.03125,0,-0.09375],"type":"VEC3"},{"bufferView":37,"componentType":5126,"count":24,"max":[1,1,1],"min":[-1,-1,-1],"type":"VEC3"},{"bufferView":38,"componentType":5126,"count":24,"max":[0.484375,0.484375],"min":[0.078125,0.171875],"type":"VEC2"},{"bufferView":39,"componentType":5123,"count":36,"max":[23],"min":[0],"type":"SCALAR"},{"bufferView":40,"componentType":5126,"count":24,"max":[0.03125,0.046875,0.03125],"min":[-0.03125,-0.015625,-0.03125],"type":"VEC3"},{"bufferView":41,"componentType":5126,"count":24,"max":[1,1,1],"min":[-1,-1,-1],"type":"VEC3"},{"bufferView":42,"componentType":5126,"count":24,"max":[0.484375,0.484375],"min":[0.28125,0.203125],"type":"VEC2"},{"bufferView":43,"componentType":5123,"count":36,"max":[23],"min":[0],"type":"SCALAR"},{"bufferView":44,"componentType":5126,"count":24,"max":[0.015625,0,0.015625],"min":[-0.015625,-0.0625,-0.015625],"type":"VEC3"},{"bufferView":45,"componentType":5126,"count":24,"max":[1,1,1],"min":[-1,-1,-1],"type":"VEC3"},{"bufferView":46,"componentType":5126,"count":24,"max":[0.484375,0.484375],"min":[0.359375,0.328125],"type":"VEC2"},{"bufferView":47,"componentType":5123,"count":36,"max":[23],"min":[0],"type":"SCALAR"},{"bufferView":48,"componentType":5126,"count":24,"max":[0.03125,0.015625,0.015625],"min":[-0.015625,0,-0.09375],"type":"VEC3"},{"bufferView":49,"componentType":5126,"count":24,"max":[1,1,1],"min":[-1,-1,-1],"type":"VEC3"},{"bufferView":50,"componentType":5126,"count":24,"max":[0.484375,0.484375],"min":[0.28125,0.3125],"type":"VEC2"},{"bufferView":51,"componentType":5123,"count":36,"max":[23],"min":[0],"type":"SCALAR"},{"bufferView":52,"componentType":5126,"count":24,"max":[0.109375,0.046875,0.15625],"min":[-0.109375,0.015625,-0.15625],"type":"VEC3"},{"bufferView":53,"componentType":5126,"count":24,"max":[0.9889363646507263,1,1],"min":[-0.9889363646507263,-1,-1],"type":"VEC3"},{"bufferView":54,"componentType":5126,"count":24,"max":[0.5625,0.5625],"min":[0.00390625,0],"type":"VEC2"},{"bufferView":55,"componentType":5123,"count":36,"max":[23],"min":[0],"type":"SCALAR"},{"bufferView":56,"componentType":5126,"count":16,"max":[1],"min":[0],"type":"SCALAR"},{"bufferView":57,"componentType":5126,"count":16,"max":[0.1950438916683197,0.01239617820829153,0.2164396196603775,0.9871938824653625],"min":[0,-0.016243843361735344,-0.237685889005661,0.9713420867919922],"type":"VEC4"},{"bufferView":58,"componentType":5126,"count":16,"max":[1],"min":[0],"type":"SCALAR"},{"bufferView":59,"componentType":5126,"count":16,"max":[0,0.4437499940395355,0],"min":[-0.1875,0.2562499940395355,0],"type":"VEC3"},{"bufferView":60,"componentType":5126,"count":16,"max":[1],"min":[0],"type":"SCALAR"},{"bufferView":61,"componentType":5126,"count":16,"max":[0.6946094036102295,0.5142135620117188,0.6743046045303345,0.649328887462616],"min":[0.3325302302837372,0.1144941970705986,0.2877166271209717,0.41270002722740173],"type":"VEC4"},{"bufferView":62,"componentType":5126,"count":16,"max":[1],"min":[0],"type":"SCALAR"},{"bufferView":63,"componentType":5126,"count":16,"max":[0.628829300403595,-0.09813478589057922,-0.19826911389827728,0.7454077005386353],"min":[0.3171379268169403,-0.5863481760025024,-0.5780661106109619,0.470594197511673],"type":"VEC4"},{"bufferView":64,"componentType":5126,"count":16,"max":[1],"min":[0],"type":"SCALAR"},{"bufferView":65,"componentType":5126,"count":16,"max":[0,0,0,1],"min":[-0.2798290252685547,0,0,0.9600498676300049],"type":"VEC4"},{"bufferView":66,"componentType":5126,"count":16,"max":[1],"min":[0],"type":"SCALAR"},{"bufferView":67,"componentType":5126,"count":16,"max":[0,0,0,1],"min":[-0.30070579051971436,0,0,0.9537169337272644],"type":"VEC4"},{"bufferView":68,"componentType":5126,"count":16,"max":[1],"min":[0],"type":"SCALAR"},{"bufferView":69,"componentType":5126,"count":16,"max":[0,0,0.04361938685178757,0.9999918341636658],"min":[0,0,-0.10886687785387039,0.9940563440322876],"type":"VEC4"},{"bufferView":70,"componentType":5126,"count":16,"max":[1],"min":[0],"type":"SCALAR"},{"bufferView":71,"componentType":5126,"count":16,"max":[0,0,0.3131638169288635,0.9996903538703918],"min":[0,0,-0.0523359552025795,0.9496991038322449],"type":"VEC4"},{"bufferView":72,"componentType":5126,"count":16,"max":[1],"min":[0],"type":"SCALAR"},{"bufferView":73,"componentType":5126,"count":16,"max":[0.30070579051971436,0,0,1],"min":[0,0,0,0.9537169337272644],"type":"VEC4"},{"bufferView":74,"componentType":5126,"count":10,"max":[0.5],"min":[0],"type":"SCALAR"},{"bufferView":75,"componentType":5126,"count":10,"max":[0.44228869676589966,0,0,1],"min":[0,0,0,0.8968727588653564],"type":"VEC4"},{"bufferView":76,"componentType":5126,"count":10,"max":[0.5],"min":[0],"type":"SCALAR"},{"bufferView":77,"componentType":5126,"count":10,"max":[0.4410530626773834,0.6444956064224243,0.6732488870620728,1],"min":[0,-0.0007274114759638906,0,0.250630646944046],"type":"VEC4"},{"bufferView":78,"componentType":5126,"count":10,"max":[0.5],"min":[0],"type":"SCALAR"},{"bufferView":79,"componentType":5126,"count":10,"max":[0.46980229020118713,0.0008367420523427427,0,1],"min":[0,-0.6513854265213013,-0.642752468585968,0.26990795135498047],"type":"VEC4"},{"bufferView":80,"componentType":5126,"count":10,"max":[0.5],"min":[0],"type":"SCALAR"},{"bufferView":81,"componentType":5126,"count":10,"max":[0,0,0,1],"min":[-0.2798290252685547,0,0,0.9600498676300049],"type":"VEC4"},{"bufferView":82,"componentType":5126,"count":10,"max":[0.5],"min":[0],"type":"SCALAR"},{"bufferView":83,"componentType":5126,"count":10,"max":[0,0,0,1],"min":[-0.08715574443340302,0,0,0.9961947202682495],"type":"VEC4"},{"bufferView":84,"componentType":5126,"count":10,"max":[0.5],"min":[0],"type":"SCALAR"},{"bufferView":85,"componentType":5126,"count":10,"max":[0.00408738711848855,0.0005542137078009546,0,1],"min":[-0.003710581921041012,-0.0010595814092084765,-0.36243805289268494,0.9320078492164612],"type":"VEC4"},{"bufferView":86,"componentType":5126,"count":10,"max":[0.5],"min":[0],"type":"SCALAR"},{"bufferView":87,"componentType":5126,"count":10,"max":[0.004071122966706753,0.0011204470647498965,0.3826834261417389,1],"min":[-0.0037090005353093147,-0.0005865432904101908,0,0.9238795042037964],"type":"VEC4"},{"bufferView":88,"componentType":5126,"count":10,"max":[0.5],"min":[0],"type":"SCALAR"},{"bufferView":89,"componentType":5126,"count":10,"max":[0,0,0,1],"min":[-0.4226182699203491,0,0,0.9063078165054321],"type":"VEC4"}],"materials":[{"pbrMetallicRoughness":{"metallicFactor":0,"roughnessFactor":1,"baseColorTexture":{"index":0}},"alphaMode":"MASK","alphaCutoff":0.05,"doubleSided":true}],"textures":[{"sampler":0,"source":0,"name":"texture"}],"samplers":[{"magFilter":9728,"minFilter":9728,"wrapS":33071,"wrapT":33071}],"images":[{"mimeType":"image/png","uri":"data:image/png;base64,"}],"meshes":[{"primitives":[{"mode":4,"attributes":{"POSITION":0,"NORMAL":1,"TEXCOORD_0":2},"indices":3,"material":0}]},{"primitives":[{"mode":4,"attributes":{"POSITION":4,"NORMAL":5,"TEXCOORD_0":6},"indices":7,"material":0}]},{"primitives":[{"mode":4,"attributes":{"POSITION":8,"NORMAL":9,"TEXCOORD_0":10},"indices":11,"material":0}]},{"primitives":[{"mode":4,"attributes":{"POSITION":12,"NORMAL":13,"TEXCOORD_0":14},"indices":15,"material":0}]},{"primitives":[{"mode":4,"attributes":{"POSITION":16,"NORMAL":17,"TEXCOORD_0":18},"indices":19,"material":0}]},{"primitives":[{"mode":4,"attributes":{"POSITION":20,"NORMAL":21,"TEXCOORD_0":22},"indices":23,"material":0}]},{"primitives":[{"mode":4,"attributes":{"POSITION":24,"NORMAL":25,"TEXCOORD_0":26},"indices":27,"material":0}]},{"primitives":[{"mode":4,"attributes":{"POSITION":28,"NORMAL":29,"TEXCOORD_0":30},"indices":31,"material":0}]},{"primitives":[{"mode":4,"attributes":{"POSITION":32,"NORMAL":33,"TEXCOORD_0":34},"indices":35,"material":0}]},{"primitives":[{"mode":4,"attributes":{"POSITION":36,"NORMAL":37,"TEXCOORD_0":38},"indices":39,"material":0}]},{"primitives":[{"mode":4,"attributes":{"POSITION":40,"NORMAL":41,"TEXCOORD_0":42},"indices":43,"material":0}]},{"primitives":[{"mode":4,"attributes":{"POSITION":44,"NORMAL":45,"TEXCOORD_0":46},"indices":47,"material":0}]},{"primitives":[{"mode":4,"attributes":{"POSITION":48,"NORMAL":49,"TEXCOORD_0":50},"indices":51,"material":0}]},{"primitives":[{"mode":4,"attributes":{"POSITION":52,"NORMAL":53,"TEXCOORD_0":54},"indices":55,"material":0}]}],"animations":[{"name":"Idle","samplers":[{"input":56,"output":57,"interpolation":"LINEAR"},{"input":58,"output":59,"interpolation":"LINEAR"},{"input":60,"output":61,"interpolation":"LINEAR"},{"input":62,"output":63,"interpolation":"LINEAR"},{"input":64,"output":65,"interpolation":"LINEAR"},{"input":66,"output":67,"interpolation":"LINEAR"},{"input":68,"output":69,"interpolation":"LINEAR"},{"input":70,"output":71,"interpolation":"LINEAR"},{"input":72,"output":73,"interpolation":"LINEAR"}],"channels":[{"sampler":0,"target":{"node":28,"path":"rotation"}},{"sampler":1,"target":{"node":28,"path":"translation"}},{"sampler":2,"target":{"node":5,"path":"rotation"}},{"sampler":3,"target":{"node":7,"path":"rotation"}},{"sampler":4,"target":{"node":15,"path":"rotation"}},{"sampler":5,"target":{"node":14,"path":"rotation"}},{"sampler":6,"target":{"node":20,"path":"rotation"}},{"sampler":7,"target":{"node":25,"path":"rotation"}},{"sampler":8,"target":{"node":27,"path":"rotation"}}]},{"name":"Exit","samplers":[{"input":74,"output":75,"interpolation":"LINEAR"},{"input":76,"output":77,"interpolation":"LINEAR"},{"input":78,"output":79,"interpolation":"LINEAR"},{"input":80,"output":81,"interpolation":"LINEAR"},{"input":82,"output":83,"interpolation":"LINEAR"},{"input":84,"output":85,"interpolation":"LINEAR"},{"input":86,"output":87,"interpolation":"LINEAR"},{"input":88,"output":89,"interpolation":"LINEAR"}],"channels":[{"sampler":0,"target":{"node":28,"path":"rotation"}},{"sampler":1,"target":{"node":5,"path":"rotation"}},{"sampler":2,"target":{"node":7,"path":"rotation"}},{"sampler":3,"target":{"node":14,"path":"rotation"}},{"sampler":4,"target":{"node":12,"path":"rotation"}},{"sampler":5,"target":{"node":20,"path":"rotation"}},{"sampler":6,"target":{"node":25,"path":"rotation"}},{"sampler":7,"target":{"node":27,"path":"rotation"}}]}]}